<svg xmlns="http://www.w3.org/2000/svg" viewBox="0 0 56 56" role="img" aria-label="Scatter"><title>Scatter</title><desc>A starburst from the center settles into stillness.</desc><defs><circle id="b" r="2.4" fill="#ffffff" opacity="0.07"/><circle id="l" r="3.1"/></defs><style>.l{fill:#ffffff;opacity:0;animation:icon-36-k 2200ms cubic-bezier(0.25, 1, 0.5, 1) infinite both;}@keyframes icon-36-k{0%{opacity:0;}4%{opacity:1;}26%{opacity:0.08;}100%{opacity:0;}}@media (prefers-reduced-motion:reduce){.l{animation:none;opacity:0.45;}}.d00{animation-delay:1399ms;}.d01{animation-delay:686ms;}.d02{animation-delay:550ms;}.d03{animation-delay:1149ms;}.d04{animation-delay:1016ms;}.d10{animation-delay:908ms;}.d11{animation-delay:1089ms;}.d12{animation-delay:1087ms;}.d13{animation-delay:940ms;}.d14{animation-delay:1305ms;}.d20{animation-delay:945ms;}.d21{animation-delay:1104ms;}.d22{animation-delay:0ms;}.d23{animation-delay:314ms;}.d24{animation-delay:758ms;}.d30{animation-delay:1004ms;}.d31{animation-delay:827ms;}.d32{animation-delay:838ms;}.d33{animation-delay:656ms;}.d34{animation-delay:726ms;}.d40{animation-delay:825ms;}.d41{animation-delay:950ms;}.d42{animation-delay:1209ms;}.d43{animation-delay:1180ms;}.d44{animation-delay:1118ms;}</style><use href="#b" x="6" y="6"/><use href="#b" x="17" y="6"/><use href="#b" x="28" y="6"/><use href="#b" x="39" y="6"/><use href="#b" x="50" y="6"/><use href="#b" x="6" y="17"/><use href="#b" x="17" y="17"/><use href="#b" x="28" y="17"/><use href="#b" x="39" y="17"/><use href="#b" x="50" y="17"/><use href="#b" x="6" y="28"/><use href="#b" x="17" y="28"/><use href="#b" x="28" y="28"/><use href="#b" x="39" y="28"/><use href="#b" x="50" y="28"/><use href="#b" x="6" y="39"/><use href="#b" x="17" y="39"/><use href="#b" x="28" y="39"/><use href="#b" x="39" y="39"/><use href="#b" x="50" y="39"/><use href="#b" x="6" y="50"/><use href="#b" x="17" y="50"/><use href="#b" x="28" y="50"/><use href="#b" x="39" y="50"/><use href="#b" x="50" y="50"/><use class="l d00" href="#l" x="6" y="6"/><use class="l d01" href="#l" x="17" y="6"/><use class="l d02" href="#l" x="28" y="6"/><use class="l d03" href="#l" x="39" y="6"/><use class="l d04" href="#l" x="50" y="6"/><use class="l d10" href="#l" x="6" y="17"/><use class="l d11" href="#l" x="17" y="17"/><use class="l d12" href="#l" x="28" y="17"/><use class="l d13" href="#l" x="39" y="17"/><use class="l d14" href="#l" x="50" y="17"/><use class="l d20" href="#l" x="6" y="28"/><use class="l d21" href="#l" x="17" y="28"/><use class="l d22" href="#l" x="28" y="28"/><use class="l d23" href="#l" x="39" y="28"/><use class="l d24" href="#l" x="50" y="28"/><use class="l d30" href="#l" x="6" y="39"/><use class="l d31" href="#l" x="17" y="39"/><use class="l d32" href="#l" x="28" y="39"/><use class="l d33" href="#l" x="39" y="39"/><use class="l d34" href="#l" x="50" y="39"/><use class="l d40" href="#l" x="6" y="50"/><use class="l d41" href="#l" x="17" y="50"/><use class="l d42" href="#l" x="28" y="50"/><use class="l d43" href="#l" x="39" y="50"/><use class="l d44" href="#l" x="50" y="50"/></svg>
