<svg xmlns="http://www.w3.org/2000/svg" viewBox="0 0 56 56" role="img" aria-label="Static"><title>Static</title><desc>VHS noise — every dot flickers on its own delay and duration.</desc><defs><circle id="b" r="2.4" fill="#ffffff" opacity="0.07"/><circle id="l" r="3.1"/></defs><style>.l{fill:#ffffff;opacity:0;animation:icon-34-k 1400ms linear infinite both;}@keyframes icon-34-k{0%{opacity:0.05;}45%{opacity:0.05;}50%{opacity:1;}55%{opacity:0.05;}100%{opacity:0.05;}}@media (prefers-reduced-motion:reduce){.l{animation:none;opacity:0.45;}}.d00{animation-delay:550ms;animation-duration:1760ms;}.d01{animation-delay:267ms;animation-duration:2025ms;}.d02{animation-delay:827ms;animation-duration:2025ms;}.d03{animation-delay:713ms;animation-duration:1846ms;}.d04{animation-delay:746ms;animation-duration:1261ms;}.d10{animation-delay:1124ms;animation-duration:1637ms;}.d11{animation-delay:1348ms;animation-duration:1909ms;}.d12{animation-delay:304ms;animation-duration:1649ms;}.d13{animation-delay:561ms;animation-duration:914ms;}.d14{animation-delay:357ms;animation-duration:1088ms;}.d20{animation-delay:155ms;animation-duration:1491ms;}.d21{animation-delay:365ms;animation-duration:1957ms;}.d22{animation-delay:354ms;animation-duration:1796ms;}.d23{animation-delay:1292ms;animation-duration:901ms;}.d24{animation-delay:1393ms;animation-duration:1566ms;}.d30{animation-delay:976ms;animation-duration:1196ms;}.d31{animation-delay:595ms;animation-duration:964ms;}.d32{animation-delay:144ms;animation-duration:1521ms;}.d33{animation-delay:883ms;animation-duration:1501ms;}.d34{animation-delay:1329ms;animation-duration:1382ms;}.d40{animation-delay:1306ms;animation-duration:1090ms;}.d41{animation-delay:979ms;animation-duration:1224ms;}.d42{animation-delay:699ms;animation-duration:1294ms;}.d43{animation-delay:617ms;animation-duration:1670ms;}.d44{animation-delay:1144ms;animation-duration:1085ms;}</style><use href="#b" x="6" y="6"/><use href="#b" x="17" y="6"/><use href="#b" x="28" y="6"/><use href="#b" x="39" y="6"/><use href="#b" x="50" y="6"/><use href="#b" x="6" y="17"/><use href="#b" x="17" y="17"/><use href="#b" x="28" y="17"/><use href="#b" x="39" y="17"/><use href="#b" x="50" y="17"/><use href="#b" x="6" y="28"/><use href="#b" x="17" y="28"/><use href="#b" x="28" y="28"/><use href="#b" x="39" y="28"/><use href="#b" x="50" y="28"/><use href="#b" x="6" y="39"/><use href="#b" x="17" y="39"/><use href="#b" x="28" y="39"/><use href="#b" x="39" y="39"/><use href="#b" x="50" y="39"/><use href="#b" x="6" y="50"/><use href="#b" x="17" y="50"/><use href="#b" x="28" y="50"/><use href="#b" x="39" y="50"/><use href="#b" x="50" y="50"/><use class="l d00" href="#l" x="6" y="6"/><use class="l d01" href="#l" x="17" y="6"/><use class="l d02" href="#l" x="28" y="6"/><use class="l d03" href="#l" x="39" y="6"/><use class="l d04" href="#l" x="50" y="6"/><use class="l d10" href="#l" x="6" y="17"/><use class="l d11" href="#l" x="17" y="17"/><use class="l d12" href="#l" x="28" y="17"/><use class="l d13" href="#l" x="39" y="17"/><use class="l d14" href="#l" x="50" y="17"/><use class="l d20" href="#l" x="6" y="28"/><use class="l d21" href="#l" x="17" y="28"/><use class="l d22" href="#l" x="28" y="28"/><use class="l d23" href="#l" x="39" y="28"/><use class="l d24" href="#l" x="50" y="28"/><use class="l d30" href="#l" x="6" y="39"/><use class="l d31" href="#l" x="17" y="39"/><use class="l d32" href="#l" x="28" y="39"/><use class="l d33" href="#l" x="39" y="39"/><use class="l d34" href="#l" x="50" y="39"/><use class="l d40" href="#l" x="6" y="50"/><use class="l d41" href="#l" x="17" y="50"/><use class="l d42" href="#l" x="28" y="50"/><use class="l d43" href="#l" x="39" y="50"/><use class="l d44" href="#l" x="50" y="50"/></svg>
