<svg xmlns="http://www.w3.org/2000/svg" viewBox="0 0 32 32" width="32" height="32">
  <rect width="32" height="32" fill="#000000"/>
  <g fill="#e0e0e0">
    <!-- Spiral core -->
    <circle cx="14" cy="17" r="1.2"/>
    <path d="M14 13.5a3.5 3.5 0 0 1 3.5 3.5" fill="none" stroke="#e0e0e0" stroke-width="1.4" stroke-linecap="round"/>
    <path d="M11 17a3 3 0 0 1 3-3" fill="none" stroke="#e0e0e0" stroke-width="1.4" stroke-linecap="round"/>
    <path d="M14 20.5a3.5 3.5 0 0 1-3.5-3.5" fill="none" stroke="#e0e0e0" stroke-width="1.4" stroke-linecap="round"/>
    <path d="M14 10a7 7 0 0 1 7 7" fill="none" stroke="#e0e0e0" stroke-width="1.4" stroke-linecap="round"/>
    <path d="M7.5 17A6.5 6.5 0 0 1 14 10.5" fill="none" stroke="#e0e0e0" stroke-width="1.4" stroke-linecap="round"/>
    <path d="M14 23.5A6.5 6.5 0 0 1 7.5 17" fill="none" stroke="#e0e0e0" stroke-width="1.4" stroke-linecap="round"/>
    <!-- Diagonal slash -->
    <line x1="18" y1="6" x2="26" y2="10" stroke="#e0e0e0" stroke-width="1.6" stroke-linecap="round"/>
  </g>
</svg>
